Coordinates
version=1
nRows=12
nColumns=33
inDegrees=yes

Units are S.I. units (second, meters, Newtons, ...)
Angles are in degrees.

endheader
time	ground_thorax_rot_x	ground_thorax_rot_y	ground_thorax_rot_z	ground_thorax_tx	ground_thorax_ty	ground_thorax_tz	clav_prot_r	clav_elev_r	scapula_abduction_r	scapula_elevation_r	scapula_upward_rot_r	scapula_winging_r	shoulder_elv_r	plane_of_elev_r	axial_rot_r	elbow_flexion_r	pro_sup_r	wrist_flex_r	wrist_dev_r	clav_prot_l	clav_elev_l	scapula_abduction_l	scapula_elevation_l	scapula_upward_rot_l	scapula_winging_l	shoulder_elv_l	plane_of_elev_l	axial_rot_l	elbow_flexion_l	pro_sup_l	wrist_flex_l	wrist_dev_l
      6.33000000	     27.20423094	     27.63133615	     43.98950961	    -55.85812945	    770.10356294	      8.73085378	     15.17530003	     37.72225620	     34.10806281	     45.00000000	    -45.00000000	  -3678.46853623	  -2455.46582767	     31.35832005	     31.52986854	   1807.35665947	     36.17470406	     18.20800470	     14.20221745	     10.53793320	    -45.00000000	    -36.61125812	     45.00000000	    -45.00000000	   2251.78342451	  -2983.30760810	    139.86558434	    179.67354448	  -1078.93031874	     48.56570644	     10.65215329	    -19.57694800
      6.34000000	     27.20249099	     27.50288115	     43.82518080	    -55.80154277	    770.40749414	      8.96693628	     15.26235220	     37.78028913	     34.13396159	     45.00000000	    -45.00000000	  -3678.57793504	  -2455.53552486	     31.40705830	     31.52003584	   1807.62440059	     36.15194893	     17.97919227	     13.96909701	     10.78782198	    -45.00000000	    -36.90245538	     45.00000000	    -45.00000000	   2251.82652713	  -2983.24399321	    139.73980750	    179.66548026	  -1078.76110101	     48.44318047	     10.76304496	    -19.72981985
      6.35000000	     27.26631778	     27.38208654	     43.96259882	    -55.95590484	    770.69800125	      9.16724642	     15.15498438	     37.72559499	     34.20374585	     45.00000000	    -45.00000000	  -3678.60644930	  -2455.36937360	     31.44736031	     31.63775116	   1807.57146942	     36.16526906	     18.32249196	     14.03445213	     10.75091364	    -45.00000000	    -36.42790375	     45.00000000	    -45.00000000	   2251.85696031	  -2983.10073458	    139.70941988	    179.85339700	  -1078.93893663	     48.30590541	     10.69607645	    -19.66830379
      6.36000000	     27.33888824	     27.22261269	     43.63079819	    -56.30505935	    770.97700348	      9.32571186	     15.20794060	     37.62969593	     34.34327519	     45.00000000	    -45.00000000	  -3678.82585149	  -2455.49531844	     31.52912012	     31.70240108	   1807.82658140	     36.20206268	     18.16196875	     13.78466284	     10.58576367	    -45.00000000	    -37.10759105	     45.00000000	    -45.00000000	   2251.95902195	  -2983.14934954	    139.54357167	    179.99999979	  -1078.71015795	     48.08500891	     10.78867366	    -19.85452904
      6.37000000	     27.37564136	     27.16606800	     43.79609118	    -56.84060556	    771.25114341	      9.44012421	     15.15751811	     37.68954671	     34.43579844	     45.00000000	    -45.00000000	  -3678.85863374	  -2455.28669398	     31.50810763	     31.77158159	   1807.79069534	     36.24799219	     18.37986636	     13.76423361	     10.67317037	    -45.00000000	    -36.60226911	     45.00000000	    -45.00000000	   2251.94388727	  -2982.88566704	    139.51727781	    179.99999979	  -1078.90374155	     47.78379515	     10.77936186	    -19.83403054
      6.38000000	     27.47047433	     27.05763336	     43.60106811	    -57.55864171	    771.53468397	      9.51015811	     15.17922039	     37.68228499	     34.50381668	     45.00000000	    -45.00000000	  -3679.01560966	  -2455.19690292	     31.60769024	     31.76925490	   1807.95011711	     36.28846258	     18.35998709	     13.57068099	     10.61582080	    -45.00000000	    -36.80391893	     45.00000000	    -45.00000000	   2252.07745798	  -2982.79267647	    139.38621473	    179.99999979	  -1078.69004064	     47.30450178	     10.81633070	    -19.95543617
      6.39000000	     27.49019186	     27.02027991	     43.60462512	    -58.46081148	    771.84654592	      9.53603989	     15.22377853	     37.87912441	     34.50414756	     45.00000000	    -45.00000000	  -3679.09111813	  -2454.94547437	     31.62904465	     31.67524371	   1808.16174432	     36.31592552	     18.46571197	     13.42836535	     10.60014838	    -45.00000000	    -36.74350366	     45.00000000	    -45.00000000	   2252.13528414	  -2982.55906572	    139.38515623	    179.99999979	  -1078.58639531	     46.68938208	     10.82802774	    -20.00191228
      6.40000000	     27.59182010	     26.96445979	     43.44146846	    -59.55103929	    772.21258611	      9.52069452	     15.22752170	     37.90070629	     34.59896165	     45.00000000	    -45.00000000	  -3679.31080324	  -2454.76476363	     31.67258015	     31.53145438	   1808.40228334	     36.35231604	     18.54155679	     13.25565057	     10.60116391	    -45.00000000	    -36.75085115	     45.00000000	    -45.00000000	   2252.22691652	  -2982.36302614	    139.25363311	    179.99999979	  -1078.41183010	     45.95362821	     10.84738047	    -20.08421198
      6.41000000	     27.73643495	     26.83971702	     43.24377651	    -60.83097028	    772.65914115	      9.46888252	     15.23482840	     37.92856434	     34.74281899	     45.00000000	    -45.00000000	  -3679.52620017	  -2454.57551087	     31.76490007	     31.37429879	   1808.66080233	     36.38899571	     18.62231648	     13.06924184	     10.58770422	    -45.00000000	    -36.79942793	     45.00000000	    -45.00000000	   2252.35340315	  -2982.14490887	    139.14837735	    179.99999979	  -1078.23183756	     45.14505589	     10.85756519	    -20.16907401
      6.42000000	     27.95405071	     26.67855750	     42.94260664	    -62.30782864	    773.21491247	      9.38700415	     15.22447187	     37.91550969	     34.94677268	     45.00000000	    -45.00000000	  -3679.77538398	  -2454.33100945	     31.91440971	     31.24138068	   1808.85510584	     36.42962378	     18.68558393	     12.86953094	     10.59788739	    -45.00000000	    -36.76538082	     45.00000000	    -45.00000000	   2252.47067461	  -2981.88288147	    138.98525766	    179.99999979	  -1077.96094550	     44.28776793	     10.83385628	    -20.27562283
      6.43000000	     28.17038224	     26.52738236	     42.63416151	    -63.98833418	    773.90392934	      9.28015420	     15.24087483	     37.97306610	     35.15110764	     45.00000000	    -45.00000000	  -3680.01251345	  -2454.08608762	     32.03108324	     31.15468545	   1809.03545543	     36.47177820	     18.73941161	     12.65423889	     10.60049449	    -45.00000000	    -36.77350403	     45.00000000	    -45.00000000	   2252.57663374	  -2981.62434342	    138.82672354	    179.99999979	  -1077.71499558	     43.40158411	     10.79819410	    -20.36864185
      6.44000000	     28.34332520	     26.38255012	     42.29025347	    -65.87132034	    774.74540247	      9.15338916	     15.29078160	     38.06084686	     35.32837118	     45.00000000	    -45.00000000	  -3680.30204112	  -2453.76763300	     32.09945988	     30.99433238	   1809.46258571	     36.46625826	     18.81988835	     12.38297117	     10.58690011	    -45.00000000	    -36.87711735	     45.00000000	    -45.00000000	   2252.69483865	  -2981.26280981	    138.67379242	    179.99999979	  -1077.34114507	     42.44557301	     10.72567150	    -20.45737339
